<svg xmlns="http://www.w3.org/2000/svg" width="24" height="24" viewBox="0 0 24 24">
  <path d="M21,11 L5.914,11 L11.707,5.207 C11.9669566,4.95592553 12.0712126,4.58412211 11.9796972,4.23449268 C11.8881817,3.88486324 11.6151368,3.61181828 11.2655073,3.52030284 C10.9158779,3.4287874 10.5440745,3.53304342 10.293,3.793 L2.793,11.293 C2.40261806,11.6834999 2.40261806,12.3165001 2.793,12.707 L10.293,20.207 C10.6853789,20.5859722 11.3090848,20.5805524 11.6948186,20.1948186 C12.0805524,19.8090848 12.0859722,19.1853789 11.707,18.793 L5.914,13 L21,13 C21.5522847,13 22,12.5522847 22,12 C22,11.4477153 21.5522847,11 21,11 Z"/>
</svg>
