<!-- This Source Code Form is subject to the terms of the Mozilla Public
   - License, v. 2.0. If a copy of the MPL was not distributed with this
   - file, You can obtain one at http://mozilla.org/MPL/2.0/. -->
<svg xmlns="http://www.w3.org/2000/svg" width="18" height="18" viewBox="0 0 18 18">
  <path d="M12.4 14.7l-.6-1.5c.3-.2.5-.4.8-.6.2-.2.4-.5.6-.7l1.5.6c.3.1.5 0 .7-.3l.4-.9c.1-.3 0-.5-.3-.7l-1.6-.6c.1-.6.1-1.3 0-1.9l1.5-.6c.3-.1.4-.4.3-.7l-.4-.9c-.1-.3-.4-.4-.7-.3l-1.5.6c-.1-.2-.3-.5-.6-.7-.2-.2-.5-.4-.7-.6l.6-1.5c.1-.3 0-.5-.3-.7l-.9-.4c-.3-.1-.5 0-.7.3L10 4.1c-.6-.1-1.3-.1-1.9 0l-.6-1.5c-.1-.3-.4-.4-.7-.3l-.9.4c-.2.1-.4.4-.3.7l.6 1.5c-.2.1-.5.3-.7.6-.2.2-.4.4-.6.7l-1.5-.7c-.3-.1-.5 0-.7.3l-.3.9c-.1.3 0 .6.2.7l1.5.6c-.1.6-.1 1.3 0 1.9l-1.5.6c-.3.1-.4.4-.3.7l.4.9c.1.3.4.4.7.3l1.5-.6c.1.2.3.5.6.7.2.2.5.4.7.6l-.6 1.5c-.1.3 0 .5.3.7l.9.4c.3.1.5 0 .7-.3l.5-1.5c.6.1 1.3.1 1.9 0l.6 1.5c.1.3.4.4.7.3l.9-.4c.2-.1.4-.4.3-.6zm-5-4.1c-.9-.9-.9-2.3 0-3.2.9-.9 2.3-.9 3.2 0 .9.9.9 2.3 0 3.2-.9.9-2.3.9-3.2 0z"/>
</svg>
