<!-- This Source Code Form is subject to the terms of the Mozilla Public
   - License, v. 2.0. If a copy of the MPL was not distributed with this
   - file, You can obtain one at http://mozilla.org/MPL/2.0/. -->
<svg xmlns="http://www.w3.org/2000/svg" width="16" height="16" viewBox="0 0 16 16">
  <path d="M11.52 7.48L10.1 8.9l2.208-.331a.2.2 0 0 0 .1-.349zM9.239 9.761l-1.688 1.688 1.2 2.519A1.125 1.125 0 1 0 10.782 13zm5.468-8.468a1 1 0 0 0-1.414 0L9.106 5.48 4.325 1.519A.2.2 0 0 0 4 1.672v8.914l-2.707 2.707a1 1 0 1 0 1.414 1.414l12-12a1 1 0 0 0 0-1.414z" fill="context-fill"/>
</svg>
