<svg xmlns="http://www.w3.org/2000/svg" width="24" height="24" viewBox="0 0 24 24">
  <path d="M22.5,10 L5.121,10 L11.561,3.561 C12.1469741,2.97502588 12.1469741,2.02497413 11.561,1.43900002 C10.9750259,0.853025902 10.0249741,0.853025895 9.439,1.439 L0.439,10.439 C0.157487488,10.7203322 -0.000679765354,11.1020087 -0.000679765354,11.5 C-0.000679765354,11.8979913 0.157487488,12.2796678 0.439,12.561 L9.439,21.561 C10.0249741,22.1469741 10.9750259,22.1469741 11.561,21.561 C12.1469741,20.9750259 12.1469741,20.0249741 11.561,19.439 L5.121,13 L22.5,13 C23.3284271,13 24,12.3284271 24,11.5 C24,10.6715729 23.3284271,10 22.5,10 Z"/>
</svg>
