<!-- This Source Code Form is subject to the terms of the Mozilla Public
   - License, v. 2.0. If a copy of the MPL was not distributed with this
   - file, You can obtain one at http://mozilla.org/MPL/2.0/. -->
<svg xmlns="http://www.w3.org/2000/svg" width="24" height="24">
  <path d="M1.684 13.486a.5.5 0 0 1-.474-.341c-.528-1.58-.23-5.767 4.097-7.921 1.315-.656 2.589-.988 3.787-.988 3.237 0 5.096 2.341 5.99 3.465.158.199.181.533 0 .713-.793.794-1.852 1.542-3.231 2.286-2.46 1.327-5.045 1.775-7.121 2.134-1.123.194-2.093.361-2.89.627a.491.491 0 0 1-.158.025z"/>
  <path d="M23.185 5.465c-.86-1.121-2.074-1.819-3.168-1.819-.641 0-1.556.23-2.273 1.328-.374.571-.577 1.161-.773 1.73-.512 1.482-1.041 3.016-4.662 4.969-2.316 1.249-4.707 1.664-6.815 2.03-2.524.438-4.704.814-5.455 2.622a.5.5 0 0 0 .522.688c.667-.081 1.533.041 2.434.217-.122.146-.261.286-.391.418-.38.385-.774.783-.657 1.292.108.474.604.699.966.828a3.87 3.87 0 0 0 1.283.217c1.241 0 2.216-.579 2.649-1.539 1.704.287 3.487.313 5.043.313l1.639-.006c.066.056.178.166.264.25.504.506 1.348 1.351 2.721 1.351a3.5 3.5 0 0 0 .416-.026c.687-.102 1.351-.267 1.574-.787.227-.528-.123-1.023-.526-1.597-.481-.685-1.08-1.532-.998-2.652.196-.397.368-.824.546-1.267.479-1.19.975-2.421 2.12-3.513a2.654 2.654 0 0 0 1.63.549 3.02 3.02 0 0 0 1.295-.3c.624-.293 1.104-.967 1.316-1.847.29-1.207.029-2.496-.7-3.449zm-2.788 2.292a.5.5 0 1 1 0-1 .5.5 0 0 1 0 1z"/>
</svg>
