<!-- This Source Code Form is subject to the terms of the Mozilla Public
   - License, v. 2.0. If a copy of the MPL was not distributed with this
   - file, You can obtain one at http://mozilla.org/MPL/2.0/. -->
<svg xmlns="http://www.w3.org/2000/svg" width="18" height="18" viewBox="0 0 18 18">
  <path d="M13.2 6.5L15.8 4c.3.6.5 1.2.5 1.9 0 2.2-1.8 4-4.1 4-.5 0-1-.1-1.4-.3l-6 5.9c-.6.6-1.7.6-2.3 0s-.6-1.6 0-2.3l5.9-5.9c-.2-.5-.3-1-.3-1.6 0-2.2 1.8-4 4.1-4 .7 0 1.3.2 1.9.5l-2.5 2.5c-.2.2-.7 1 0 1.7.6.8 1.4.2 1.6.1zm-9.6 7.1c-.5 0-.9.4-.9.9s.4.9.9.9.9-.4.9-.9-.4-.9-.9-.9z"/>
</svg>
