<!-- This Source Code Form is subject to the terms of the Mozilla Public
   - License, v. 2.0. If a copy of the MPL was not distributed with this
   - file, You can obtain one at http://mozilla.org/MPL/2.0/. -->
<svg width="16" height="16" viewBox="0 0 16 16" xmlns="http://www.w3.org/2000/svg">
  <path d="M7.29 13.907l7-5a.5.5 0 0 0 .033-.789l-6.5-5.5a.5.5 0 1 0-.646.764l6.5 5.5.032-.789-7 5a.5.5 0 1 0 .582.814z"/>
  <path d="M2.29 13.907l7-5a.5.5 0 0 0 .033-.789l-6.5-5.5a.5.5 0 1 0-.646.764l6.5 5.5.032-.789-7 5a.5.5 0 1 0 .582.814z"/>
</svg>
