<!-- This Source Code Form is subject to the terms of the Mozilla Public
   - License, v. 2.0. If a copy of the MPL was not distributed with this
   - file, You can obtain one at http://mozilla.org/MPL/2.0/. -->
<svg xmlns="http://www.w3.org/2000/svg" viewBox="0 0 32 32">
  <title>
    firefox
  </title>
  <path d="M28.48 4.49H3.68A2.54 2.54 0 0 0 1.2 7v18.2a2.54 2.54 0 0 0 2.47 2.47h24.8a2.49 2.49 0 0 0 2.42-2.48V7a2.49 2.49 0 0 0-2.41-2.51zm-.88 18.2a1.56 1.56 0 0 1-1.6 1.65H6.15a1.56 1.56 0 0 1-1.65-1.65V9.49a1.56 1.56 0 0 1 1.65-1.65H26a1.56 1.56 0 0 1 1.6 1.65zM11.8 19c-1.34 0-1.58-1.3-1.58-2.69 0-1.91.56-2.88 1.48-2.88s1.35.59 1.43 1.62h2.45c-.21-2.54-1.53-4-4-4-2.24 0-4 2-4 5.18s1.61 5.21 4.26 5.21c2.12 0 3.55-1.53 3.79-4.09h-2.48c-.1.97-.5 1.65-1.35 1.65zm8.8 0c-1.33 0-1.6-1.25-1.6-2.64 0-1.91.56-2.88 1.48-2.88s1.25.59 1.32 1.62h2.5c-.21-2.54-1.48-4-3.94-4-2.24 0-4 2-4 5.18s1.56 5.21 4.21 5.21c2.12 0 3.5-1.53 3.74-4.09h-2.46c-.1.92-.4 1.6-1.25 1.6z"/>
</svg>
