<!-- This Source Code Form is subject to the terms of the Mozilla Public
   - License, v. 2.0. If a copy of the MPL was not distributed with this
   - file, You can obtain one at http://mozilla.org/MPL/2.0/. -->
<svg xmlns="http://www.w3.org/2000/svg" width="18" height="18" viewBox="0 0 18 18">
  <path d="M14.311 5.123a6.579 6.579 0 1 0-9.285 9.117l-.481 1.369A7.985 7.985 0 1 1 16.885 7.7zM9.034 16.148L5 18l1.863-4.024zM13.4 4.89c.009.028.014.058.023.085.059.064.1.14.16.207l-.89.911c-.038-.222-.061-.458-.107-.672a15.86 15.86 0 0 0-1.706-.277c.034.621.058 1.252.076 1.9.265.008.518.022.778.032L10 8.855c0-.283-.011-.556-.014-.839C9.652 8.013 9.337 8 9 8s-.652.013-.983.017C8.013 8.348 8 8.663 8 9s.013.652.017.983c.291.004.573.017.865.017l-1.8 1.848c-.012-.3-.028-.586-.036-.888a68.65 68.65 0 0 1-1.93-.081 15.963 15.963 0 0 0 .273 1.721c.26.059.547.089.819.135l-.958.982a6.057 6.057 0 0 1-.642-.6c-.009-.027-.014-.057-.023-.085a6 6 0 0 1-.655-.832c.148.051.312.091.466.139a13.619 13.619 0 0 1-.275-1.521c-.282-.02-.581-.031-.857-.054A5.981 5.981 0 0 1 3.06 9.8c.313.021.651.031.971.049C4.015 9.571 4 9.289 4 9s.015-.571.032-.852c-.321.018-.66.028-.972.052a5.981 5.981 0 0 1 .2-.957c.276-.023.575-.034.857-.054a13.633 13.633 0 0 1 .268-1.5c-.158.048-.325.088-.476.14a6 6 0 0 1 .671-.864c.013-.027.02-.058.027-.085a6.031 6.031 0 0 1 1.195-1c-.061.178-.11.375-.165.562a13.17 13.17 0 0 1 1.544-.3c.019-.315.033-.642.058-.942A5.92 5.92 0 0 1 8.2 3c-.023.343-.034.713-.053 1.066C8.431 4.046 8.7 4 9 4s.568.046.856.063C9.837 3.711 9.826 3.34 9.8 3a5.923 5.923 0 0 1 .957.206c.025.3.037.624.058.931a13.172 13.172 0 0 1 1.518.3c-.056-.191-.1-.391-.167-.573A6.032 6.032 0 0 1 13.4 4.89zM5 9c0 .308.02.6.035.9.648.029 1.31.049 1.985.064C7.016 9.641 7 9.33 7 9s.016-.641.02-.966c-.675.015-1.337.035-1.985.066C5.02 8.4 5 8.692 5 9zm.383-3.573a15.968 15.968 0 0 0-.272 1.695 68.81 68.81 0 0 1 1.93-.081c.018-.645.042-1.276.076-1.9a15.853 15.853 0 0 0-1.734.286zm4.523-.36c-.3-.016-.597-.036-.906-.036s-.606.02-.906.036a92.36 92.36 0 0 0-.06 1.954C8.358 7.016 8.67 7 9 7s.641.016.967.021a91.24 91.24 0 0 0-.061-1.954zm4.033 1.872L16.06 9.06l-6.176 6.149-2.121-2.122zm.561 5.694l2.385-2.313a7.993 7.993 0 0 1-6.806 6.6l2.421-2.351a6.608 6.608 0 0 0 2-1.936z"/>
</svg>
