<!-- This Source Code Form is subject to the terms of the Mozilla Public
   - License, v. 2.0. If a copy of the MPL was not distributed with this
   - file, You can obtain one at http://mozilla.org/MPL/2.0/. -->
<svg xmlns="http://www.w3.org/2000/svg" width="18" height="18" viewBox="0 0 18 18">
  <path d="M13.888 14.885l-2.375-2.158a14.275 14.275 0 0 1-1.313 1.167H7.8a15.252 15.252 0 0 1-1.372-1.167l-2.2 2.158H3V9.938l2.374-2.279C5.969 4.649 8.051 2 9 2s3.11 2.649 3.554 5.659L15 9.907v4.978h-1.112zM9 5.005c-.332 0-1.023 1.044-1.386 1.958a9.7 9.7 0 0 1 1.414-.1 8.535 8.535 0 0 1 1.26.093C9.929 6.044 9.335 5.005 9 5.005zm-.411 9.385a.757.757 0 0 0-.09.359.541.541 0 0 0 .468.45.6.6 0 0 0 .522-.45.754.754 0 0 0-.089-.359h.587a2.131 2.131 0 0 1 .3.606A1.484 1.484 0 0 1 9 16a1.5 1.5 0 0 1-1.281-1.02 2.035 2.035 0 0 1 .3-.59h.57z"/>
</svg>
