<!-- This Source Code Form is subject to the terms of the Mozilla Public
   - License, v. 2.0. If a copy of the MPL was not distributed with this
   - file, You can obtain one at http://mozilla.org/MPL/2.0/. -->
<svg height="16" width="16" xmlns="http://www.w3.org/2000/svg" viewBox="0 0 16 16">
  <path d="M14.6 6.1L13.5 5c.1-.1.2-.4.2-.6 0-.2-.1-.4-.2-.6l-.4-.4c-.3-.3-.8-.3-1.1 0L10.5 2c-.2-.2-.3-.2-.5-.2s-.3.1-.5.2L8.3 3.2c-.2.1-.2.2-.2.4s.1.4.2.5l1.6 1.6-2.1 2.1-2.2-2.1 1.5-1.5c.2-.2.3-.4.3-.6 0-.2-.1-.4-.2-.6l-1-1c-.4-.3-.9-.3-1.2 0L.9 6.1c-.2.2-.3.4-.3.6 0 .2.1.4.2.6l1 1c.3.3.9.3 1.2 0l1.4-1.4 2 2.1L3 12.3c-.3.3-.3.8 0 1.1l.3.3c.3.3.8.3 1.1 0l3.3-3.4 3.3 3.4c.1.1.3.2.6.2.2 0 .4-.1.6-.2l.3-.3c.3-.3.3-.8 0-1.1L9 9l2-2.1 1.4 1.4c.1.1 2.3 1.1 2.7.7.4-.4-.3-2.7-.5-2.9z"/>
</svg>
