<!-- This Source Code Form is subject to the terms of the Mozilla Public
   - License, v. 2.0. If a copy of the MPL was not distributed with this
   - file, You can obtain one at http://mozilla.org/MPL/2.0/. -->
<svg xmlns="http://www.w3.org/2000/svg" width="16" height="16" viewBox="0 0 16 16">
  <path fill="#4d9a26" d="M8 2C5.784 2 4 3.784 4 6v1c-.554 0-1 .446-1 1v5c0 .554.446 1 1 1h8c.554 0 1-.446 1-1V8c0-.554-.446-1-1-1V6c0-2.216-1.784-4-4-4zm0 2c1.108 0 2 .892 2 2v1H6V6c0-1.108.892-2 2-2z"/>
</svg>
