<!-- This Source Code Form is subject to the terms of the Mozilla Public
   - License, v. 2.0. If a copy of the MPL was not distributed with this
   - file, You can obtain one at http://mozilla.org/MPL/2.0/. -->
<svg width="24" height="24" viewBox="0 0 24 24" xmlns="http://www.w3.org/2000/svg">
  <path d="M14.38 18.5c.015.324.23.604.54.7l2.51.68c.55.182.957.65 1.06 1.22l.05.39-3.89-.53a4.346 4.346 0 0 1-1.74-.72l-5.75-4.39a5.79 5.79 0 0 1-5.34-4.88H1a1 1 0 0 1-1-1l2.9-3.24a6.163 6.163 0 0 1 4.7-2.39c.257 0 .515.016.77.05.294.024.585.074.87.15 3.75 1 6.5 5.84 6.5 5.84.28.398.68.696 1.14.85h.17a1.27 1.27 0 0 0 1.22-.4l.78-1-2.47-1.2c-3.38-1.46-2.46-5.71-2.46-5.71 0-.26.23-.32.42-.14l5.32 5-4.31-4.81c.017-.527.33-1 .81-1.22l4.17 6.65.33.31 2.19 1.54c.54.427.874 1.063.92 1.75v2.77l-.16.13a1.661 1.661 0 0 1-1.63.19l-.75-.36a2.568 2.568 0 0 0-2.55.32l-2.18 1.82a4.23 4.23 0 0 1-.89.55 10.18 10.18 0 0 0-4.62-8.46c-.27-.16-.66.31-.47.48a10.52 10.52 0 0 1 3.68 8.5v.48l-.02.08zm8.38-5.42a.488.488 0 1 0 .346-.836.49.49 0 1 0-.346.836zm-18 9.14v-.52a1.389 1.389 0 0 1 .93-1.25c.536-.187 2.7-.66 3.43-1.84l2.06 1.63a25.57 25.57 0 0 1-6.43 2l.01-.02z"/>
</svg>
