<svg xmlns="http://www.w3.org/2000/svg" width="16" height="16" viewBox="0 0 16 16">
  <path fill="#0C0C0D" fill-opacity=".8" d="M15,11 C15,11.5522847 14.5522847,12 14,12 C13.4477153,12 13,11.5522847 13,11 C13,8.23857625 10.7614237,6 8,6 C5.94968096,6 4.18760031,7.23409522 3.41604369,9 L6.0043326,9 C6.55661734,9 7.0043326,9.44771525 7.0043326,10 C7.0043326,10.5522847 6.55661734,11 6.0043326,11 L1,11 C0.44771525,11 0,10.5522847 0,10 L0,5 C0,4.44771525 0.44771525,4 1,4 C1.55228475,4 2,4.44771525 2,5 L2,7.39241339 C3.22489715,5.35958217 5.45367486,4 8,4 C11.8659932,4 15,7.13400675 15,11 Z" transform="matrix(-1 0 0 1 15 0)"/>
</svg>
