<!-- This Source Code Form is subject to the terms of the Mozilla Public
   - License, v. 2.0. If a copy of the MPL was not distributed with this
   - file, You can obtain one at http://mozilla.org/MPL/2.0/. -->
<svg xmlns="http://www.w3.org/2000/svg" width="16" height="16">
  <path d="M8 1C4.1 1 1 4.1 1 8s3.1 7 7 7 7-3.1 7-7-3.1-7-7-7zm0 12.3c-2.9 0-5.3-2.4-5.3-5.3S5.1 2.7 8 2.7s5.3 2.4 5.3 5.3-2.4 5.3-5.3 5.3zM10.5 7H9V5c0-.6-.4-1-1-1s-1 .4-1 1v3c0 .6.4 1 1 1h2.5c.6 0 1-.4 1-1s-.4-1-1-1z"/>
</svg>
