<!-- This Source Code Form is subject to the terms of the Mozilla Public
   - License, v. 2.0. If a copy of the MPL was not distributed with this
   - file, You can obtain one at http://mozilla.org/MPL/2.0/. -->
<svg xmlns="http://www.w3.org/2000/svg" width="24" height="24" viewBox="0 0 24 24">
  <path fill="#737373" d="M10.87 18.989h2.144L8.3 3.991H5.724l-4.739 15h2.059l1.115-4.171h5.6zM4.652 12.91l2.316-7.22 2.294 7.22h-4.61zM22.1 16.515v-5.06c0-2.31-.984-3.713-3.65-3.713a10.236 10.236 0 0 0-3.7.756l.366 1.402a9.9 9.9 0 0 1 2.984-.583c1.533 0 1.958.627 1.958 2.223v.975h-1.35c-3.086 0-4.871 1.125-4.871 3.5a3.217 3.217 0 0 0 3.527 3.338 3.205 3.205 0 0 0 2.945-1.659 2.573 2.573 0 0 0 2.436 1.659l.441-1.344a1.408 1.408 0 0 1-1.086-1.494zM17.8 17.9a1.744 1.744 0 0 1-1.911-1.995c0-1.512 1.029-2.111 3.065-2.111h1.1v2.386c-.628 1.154-1.116 1.72-2.254 1.72z"/>
</svg>
